<?xml version="1.0" encoding="UTF-8" standalone="no"?>
<!-- Svg Vector Icons : http://www.onlinewebfonts.com/icon -->

<svg
   xmlns:dc="http://purl.org/dc/elements/1.1/"
   xmlns:cc="http://creativecommons.org/ns#"
   xmlns:rdf="http://www.w3.org/1999/02/22-rdf-syntax-ns#"
   xmlns:svg="http://www.w3.org/2000/svg"
   xmlns="http://www.w3.org/2000/svg"
   xmlns:sodipodi="http://sodipodi.sourceforge.net/DTD/sodipodi-0.dtd"
   xmlns:inkscape="http://www.inkscape.org/namespaces/inkscape"
   version="1.1"
   x="0px"
   y="0px"
   viewBox="0 0 1000 1000"
   enable-background="new 0 0 1000 1000"
   xml:space="preserve"
   id="svg2"
   inkscape:version="0.91 r13725"
   sodipodi:docname="clear.svg"><defs
     id="defs14" /><sodipodi:namedview
     pagecolor="#ffffff"
     bordercolor="#666666"
     borderopacity="1"
     objecttolerance="10"
     gridtolerance="10"
     guidetolerance="10"
     inkscape:pageopacity="0"
     inkscape:pageshadow="2"
     inkscape:window-width="1920"
     inkscape:window-height="1141"
     id="namedview12"
     showgrid="false"
     inkscape:zoom="0.236"
     inkscape:cx="-542.37288"
     inkscape:cy="483.05084"
     inkscape:window-x="1920"
     inkscape:window-y="26"
     inkscape:window-maximized="1"
     inkscape:current-layer="g8" /><metadata
     id="metadata4"> Svg Vector Icons : http://www.onlinewebfonts.com/icon <rdf:RDF><cc:Work
     rdf:about=""><dc:format>image/svg+xml</dc:format><dc:type
       rdf:resource="http://purl.org/dc/dcmitype/StillImage" /></cc:Work></rdf:RDF></metadata><g
     id="g6"
     transform="matrix(0.99999598,0.00283708,-0.00283708,0.99999598,1.4205524,-1.4165279)"><g
       transform="matrix(-0.99993061,0.02445703,-0.00567399,-0.99993061,1008.2391,1907.6703)"
       id="g8"><path
         d="M 527,1092.5 72,1547.6 c -15.7,15.7 -23.6,34.8 -23.6,57.3 0,22.5 7.9,41.6 23.6,57.3 L 295.8,1886 c 15.7,16 34.9,24 57.5,24 22.6,0 41.8,-8 57.5,-24 L 928,1368.8 c 15.7,-15.7 23.6,-34.8 23.6,-57.3 0,-22.5 -7.9,-41.6 -23.6,-57.3 l -161.7,-161.7 -239.3,0 z M 388.1,1346.5 618,1576 359.2,1834.8 129.6,1604.8 388.1,1346.5 Z M 98,930 l 0,81.3 c 0,11.1 4,20.7 12,28.6 8,8 17.5,12 28.6,12 l 690.7,0 c 11.1,0 20.7,-4 28.6,-12 8,-8 12,-17.5 12,-28.6 l 0,-81.3 -771.9,0 z"
         id="path10"
         inkscape:connector-curvature="0"
         style="fill:#c3c3c3;fill-opacity:1" /></g></g></svg>